<?xml version="1.0" standalone="no"?>
<!DOCTYPE svg PUBLIC "-//W3C//DTD SVG 20010904//EN"
 "http://www.w3.org/TR/2001/REC-SVG-20010904/DTD/svg10.dtd">
<svg version="1.0" xmlns="http://www.w3.org/2000/svg"
 width="260.000000pt" height="260.000000pt" viewBox="0 0 260.000000 260.000000"
 preserveAspectRatio="xMidYMid meet">
<metadata>
Created by potrace 1.11, written by Peter Selinger 2001-2013
</metadata>
<g transform="translate(0.000000,260.000000) scale(0.100000,-0.100000)"
fill="#000000" stroke="none">
<path d="M1253 2499 c-125 -15 -250 -111 -292 -225 -12 -30 -21 -61 -21 -69 0
-19 0 -19 -47 4 -79 39 -117 49 -193 46 -213 -6 -365 -171 -356 -386 2 -41 8
-84 14 -95 19 -35 52 -105 52 -109 0 -3 -9 -5 -20 -5 -32 0 -123 -45 -164 -80
-124 -109 -162 -284 -95 -435 41 -92 151 -184 242 -200 20 -4 37 -9 37 -10 0
-2 -11 -26 -25 -53 -83 -165 -39 -361 104 -466 65 -48 122 -68 204 -71 76 -4
120 6 190 41 27 13 50 24 52 24 1 0 6 -17 10 -37 21 -114 153 -245 270 -268
89 -17 209 2 275 44 80 51 170 177 170 240 0 26 -2 26 59 -5 64 -31 80 -35
161 -39 198 -10 367 147 376 349 3 70 -20 165 -52 210 -20 29 -18 33 24 41 87
16 195 103 238 192 30 62 42 158 29 228 -26 142 -141 267 -268 290 -20 4 -37
9 -37 12 0 2 11 23 24 47 13 23 28 65 34 92 51 239 -125 457 -363 449 -89 -3
-113 -9 -167 -40 -23 -14 -46 -25 -49 -25 -4 0 -10 17 -14 38 -23 123 -163
253 -288 268 -23 3 -43 6 -46 8 -4 1 -34 -1 -68 -5z"/>
</g>
</svg>
